<?xml version="1.0" encoding="UTF-8" standalone="no"?>
<!DOCTYPE svg PUBLIC "-//W3C//DTD SVG 1.1//EN"
 "http://www.w3.org/Graphics/SVG/1.1/DTD/svg11.dtd">
<!-- Generated by graphviz version 2.36.0 (20140111.2315)
 -->
<!-- Title: %3 Pages: 1 -->
<svg width="326pt" height="388pt"
 viewBox="0.00 0.00 325.53 388.00" xmlns="http://www.w3.org/2000/svg" xmlns:xlink="http://www.w3.org/1999/xlink">
<g id="graph0" class="graph" transform="scale(1 1) rotate(0) translate(4 384)">
<title>%3</title>
<polygon fill="#000000" stroke="none" points="-4,4 -4,-384 321.526,-384 321.526,4 -4,4"/>
<!-- A -->
<g id="node1" class="node"><title>A</title>
<polygon fill="#00ff00" stroke="white" points="244.079,-18 224.302,-36 184.749,-36 164.973,-18 184.749,-2.4869e-14 224.302,-0 244.079,-18"/>
<text text-anchor="middle" x="204.526" y="-14.3" font-family="Helvetica,sans-Serif" font-size="14.00" fill="white">KENT</text>
</g>
<!-- B -->
<g id="node2" class="node"><title>B</title>
<polygon fill="#00ff00" stroke="white" points="206.635,-104 164.581,-122 80.4711,-122 38.4163,-104 80.4711,-86 164.581,-86 206.635,-104"/>
<text text-anchor="middle" x="122.526" y="-100.3" font-family="Helvetica,sans-Serif" font-size="14.00" fill="white">WASHINGTON</text>
</g>
<!-- A&#45;&gt;B -->
<g id="edge1" class="edge"><title>A&#45;&gt;B</title>
<path fill="none" stroke="white" stroke-dasharray="5,2" d="M187.535,-36.4049C175.582,-48.6498 159.425,-65.2013 146.208,-78.7399"/>
<polygon fill="white" stroke="white" points="139.214,-85.9048 142.979,-75.6056 142.707,-82.327 146.199,-78.7491 146.199,-78.7491 146.199,-78.7491 142.707,-82.327 149.419,-81.8925 139.214,-85.9048 139.214,-85.9048"/>
<text text-anchor="middle" x="180.026" y="-57.9" font-family="Courier,monospace" font-size="12.00" fill="white">113</text>
</g>
<!-- C -->
<g id="node3" class="node"><title>C</title>
<polygon fill="#00ff00" stroke="white" points="145.09,-190 120.308,-208 70.7436,-208 45.9613,-190 70.7436,-172 120.308,-172 145.09,-190"/>
<text text-anchor="middle" x="95.5259" y="-186.3" font-family="Helvetica,sans-Serif" font-size="14.00" fill="white">DUBLIN</text>
</g>
<!-- A&#45;&gt;C -->
<g id="edge2" class="edge"><title>A&#45;&gt;C</title>
<path fill="none" stroke="white" stroke-dasharray="5,2" d="M166.718,-19.4993C120.229,-22.3966 43.0132,-35.1335 6.52586,-86 -15.6026,-116.849 25.0872,-149.541 58.4699,-169.615"/>
<polygon fill="white" stroke="white" points="67.1942,-174.684 56.2869,-173.551 62.8709,-172.172 58.5477,-169.66 58.5477,-169.66 58.5477,-169.66 62.8709,-172.172 60.8084,-165.769 67.1942,-174.684 67.1942,-174.684"/>
<text text-anchor="middle" x="18.0259" y="-100.9" font-family="Courier,monospace" font-size="12.00" fill="white">793</text>
</g>
<!-- D -->
<g id="node4" class="node"><title>D</title>
<polygon fill="#00ff00" stroke="white" points="229.588,-276 206.057,-294 158.995,-294 135.463,-276 158.995,-258 206.057,-258 229.588,-276"/>
<text text-anchor="middle" x="182.526" y="-272.3" font-family="Helvetica,sans-Serif" font-size="14.00" fill="white">BRYAN</text>
</g>
<!-- A&#45;&gt;D -->
<g id="edge3" class="edge"><title>A&#45;&gt;D</title>
<path fill="none" stroke="white" stroke-dasharray="5,2" d="M208.153,-36.2572C210.792,-49.7323 214.137,-68.9644 215.526,-86 220.281,-144.317 202.973,-211.59 191.641,-248.071"/>
<polygon fill="white" stroke="white" points="188.487,-257.936 187.246,-247.041 190.01,-253.174 191.533,-248.411 191.533,-248.411 191.533,-248.411 190.01,-253.174 195.819,-249.782 188.487,-257.936 188.487,-257.936"/>
<text text-anchor="middle" x="222.526" y="-143.9" font-family="Courier,monospace" font-size="12.00" fill="white">27</text>
</g>
<!-- B&#45;&gt;C -->
<g id="edge4" class="edge"><title>B&#45;&gt;C</title>
<path fill="none" stroke="white" stroke-dasharray="5,2" d="M116.931,-122.405C113.251,-133.856 108.359,-149.074 104.181,-162.071"/>
<polygon fill="white" stroke="white" points="101.021,-171.905 99.7968,-161.007 102.551,-167.145 104.081,-162.385 104.081,-162.385 104.081,-162.385 102.551,-167.145 108.365,-163.762 101.021,-171.905 101.021,-171.905"/>
<text text-anchor="middle" x="123.026" y="-143.9" font-family="Courier,monospace" font-size="12.00" fill="white">419</text>
</g>
<!-- B&#45;&gt;D -->
<g id="edge5" class="edge"><title>B&#45;&gt;D</title>
<path fill="none" stroke="white" stroke-dasharray="5,2" d="M131.324,-122.033C137.995,-135.388 147.085,-154.568 153.526,-172 162.889,-197.342 170.973,-227.132 176.209,-248.137"/>
<polygon fill="white" stroke="white" points="178.612,-257.968 171.866,-249.322 177.425,-253.111 176.238,-248.253 176.238,-248.253 176.238,-248.253 177.425,-253.111 180.609,-247.185 178.612,-257.968 178.612,-257.968"/>
<text text-anchor="middle" x="181.026" y="-186.9" font-family="Courier,monospace" font-size="12.00" fill="white">1416</text>
</g>
<!-- E -->
<g id="node5" class="node"><title>E</title>
<polygon fill="#00ff00" stroke="white" points="181.6,-362 153.063,-380 95.9887,-380 67.4515,-362 95.9887,-344 153.063,-344 181.6,-362"/>
<text text-anchor="middle" x="124.526" y="-358.3" font-family="Helvetica,sans-Serif" font-size="14.00" fill="white">OXFORD</text>
</g>
<!-- B&#45;&gt;E -->
<g id="edge6" class="edge"><title>B&#45;&gt;E</title>
<path fill="none" stroke="white" stroke-dasharray="5,2" d="M87.5022,-122.175C68.661,-133.483 47.161,-150.233 36.5259,-172 29.502,-186.376 32.3974,-192.542 36.5259,-208 49.6385,-257.098 82.6935,-306.793 104.349,-335.706"/>
<polygon fill="white" stroke="white" points="110.67,-343.988 101.026,-338.768 107.636,-340.013 104.603,-336.039 104.603,-336.039 104.603,-336.039 107.636,-340.013 108.18,-333.309 110.67,-343.988 110.67,-343.988"/>
<text text-anchor="middle" x="59.0259" y="-229.9" font-family="Courier,monospace" font-size="12.00" fill="white">891</text>
</g>
<!-- C&#45;&gt;D -->
<g id="edge7" class="edge"><title>C&#45;&gt;D</title>
<path fill="none" stroke="white" stroke-dasharray="5,2" d="M108.324,-208.147C116.007,-217.946 126.257,-230.196 136.526,-240 140.804,-244.084 145.55,-248.143 150.322,-251.971"/>
<polygon fill="white" stroke="white" points="158.3,-258.161 147.641,-255.586 154.35,-255.096 150.399,-252.031 150.399,-252.031 150.399,-252.031 154.35,-255.096 153.158,-248.476 158.3,-258.161 158.3,-258.161"/>
<text text-anchor="middle" x="152.026" y="-229.9" font-family="Courier,monospace" font-size="12.00" fill="white">1144</text>
</g>
<!-- C&#45;&gt;E -->
<g id="edge8" class="edge"><title>C&#45;&gt;E</title>
<path fill="none" stroke="white" stroke-dasharray="5,2" d="M95.6798,-208.29C96.1358,-228.883 97.7827,-264.238 103.526,-294 106.142,-307.559 110.555,-322.237 114.662,-334.389"/>
<polygon fill="white" stroke="white" points="117.994,-343.923 110.447,-335.968 116.345,-339.203 114.695,-334.483 114.695,-334.483 114.695,-334.483 116.345,-339.203 118.943,-332.998 117.994,-343.923 117.994,-343.923"/>
<text text-anchor="middle" x="115.026" y="-272.9" font-family="Courier,monospace" font-size="12.00" fill="white">120</text>
</g>
<!-- D&#45;&gt;E -->
<g id="edge9" class="edge"><title>D&#45;&gt;E</title>
<path fill="none" stroke="white" stroke-dasharray="5,2" d="M170.508,-294.405C162.288,-306.31 151.258,-322.285 142.061,-335.605"/>
<polygon fill="white" stroke="white" points="136.33,-343.905 138.309,-333.119 139.171,-339.79 142.012,-335.676 142.012,-335.676 142.012,-335.676 139.171,-339.79 145.715,-338.233 136.33,-343.905 136.33,-343.905"/>
<text text-anchor="middle" x="169.026" y="-315.9" font-family="Courier,monospace" font-size="12.00" fill="white">142</text>
</g>
<!-- E&#45;&gt;A -->
<g id="edge10" class="edge"><title>E&#45;&gt;A</title>
<path fill="none" stroke="white" stroke-dasharray="5,2" d="M172.693,-356.313C220.446,-348.696 286.526,-328.799 286.526,-277 286.526,-103 286.526,-103 286.526,-103 286.526,-73.8536 260.934,-51.0567 238.344,-36.6115"/>
<polygon fill="white" stroke="white" points="229.574,-31.3051 240.459,-32.6316 233.852,-33.8934 238.13,-36.4818 238.13,-36.4818 238.13,-36.4818 233.852,-33.8934 235.8,-40.3319 229.574,-31.3051 229.574,-31.3051"/>
<text text-anchor="middle" x="302.026" y="-186.9" font-family="Courier,monospace" font-size="12.00" fill="white">2368</text>
</g>
</g>
</svg>
